<svg width="48" height="48" viewBox="0 0 48 48" fill="#B3B3B3" xmlns="http://www.w3.org/2000/svg">
    <path fill-rule="evenodd" clip-rule="evenodd" d="M24 12C30.6274 12 36 17.3726 36 24C36 30.6274 30.6274 36 24 36C17.3726 36 12 30.6274 12 24C12 17.3726 17.3726 12 24 12ZM24 16.5C19.8579 16.5 16.5 19.8579 16.5 24C16.5 28.1421 19.8579 31.5 24 31.5C28.1421 31.5 31.5 28.1421 31.5 24C31.5 19.8579 28.1421 16.5 24 16.5Z"/>
    <path d="M37 8C38.6569 8 40 9.34315 40 11C40 12.6569 38.6569 14 37 14C35.3431 14 34 12.6569 34 11C34 9.34315 35.3431 8 37 8Z"/>
    <path fill-rule="evenodd" clip-rule="evenodd" d="M40 0C44.4183 5.15405e-07 48 3.58172 48 8V40C48 44.4183 44.4183 48 40 48H8C3.58172 48 1.28855e-07 44.4183 0 40V8C5.15422e-07 3.58172 3.58172 1.28851e-07 8 0H40ZM9 5C6.79086 5 5 6.79086 5 9V39C5 41.2091 6.79086 43 9 43H39C41.2091 43 43 41.2091 43 39V9C43 6.79086 41.2091 5 39 5H9Z"/>
</svg>
