<svg width="48" height="48" viewBox="0 0 48 48" fill="#B3B3B3" xmlns="http://www.w3.org/2000/svg">
    <path d="M16.8242 37H11.4326V19.623H16.8242V37Z"/>
    <path d="M30.5371 19.1904C35.9923 19.1905 37 22.7877 37 27.4658V37H31.6152V28.5537C31.6152 26.5417 31.5792 23.9463 28.8125 23.9463C26.011 23.9467 25.585 26.1434 25.585 28.4111V37H20.208V19.623H25.3721V21.999H25.4434C26.1599 20.634 27.9194 19.1905 30.5371 19.1904Z"/>
    <path d="M14.1279 11C15.8517 11 17.2488 12.4005 17.249 14.1279C17.2488 15.8484 15.8517 17.2568 14.1279 17.2568C12.3973 17.2566 11.0002 15.8553 11 14.1279C11.0002 12.4006 12.3973 11.0002 14.1279 11Z"/>
    <path fill-rule="evenodd" clip-rule="evenodd" d="M40 0C44.4183 5.15405e-07 48 3.58172 48 8V40C48 44.4183 44.4183 48 40 48H8C3.58172 48 1.28855e-07 44.4183 0 40V8C5.15422e-07 3.58172 3.58172 1.28851e-07 8 0H40ZM9 5C6.79086 5 5 6.79086 5 9V39C5 41.2091 6.79086 43 9 43H39C41.2091 43 43 41.2091 43 39V9C43 6.79086 41.2091 5 39 5H9Z"/>
</svg>
